<svg width="64" height="64" viewBox="0 0 64 64" fill="none" xmlns="http://www.w3.org/2000/svg">
<g clip-path="url(#clip0_4786_3394)">
<path d="M32.0002 62.0802C48.6129 62.0802 62.0802 48.6129 62.0802 32.0002C62.0802 15.3874 48.6129 1.92017 32.0002 1.92017C15.3874 1.92017 1.92017 15.3874 1.92017 32.0002C1.92017 48.6129 15.3874 62.0802 32.0002 62.0802Z" stroke="url(#paint0_linear_4786_3394)" stroke-width="0.768"/>
<path d="M31.9999 60.7999C47.9058 60.7999 60.7999 47.9058 60.7999 31.9999C60.7999 16.0941 47.9058 3.19995 31.9999 3.19995C16.0941 3.19995 3.19995 16.0941 3.19995 31.9999C3.19995 47.9058 16.0941 60.7999 31.9999 60.7999Z" stroke="white" stroke-width="0.512"/>
<path d="M32.0002 60.4162C47.694 60.4162 60.4162 47.694 60.4162 32.0002C60.4162 16.3065 47.694 3.58423 32.0002 3.58423C16.3065 3.58423 3.58423 16.3065 3.58423 32.0002C3.58423 47.694 16.3065 60.4162 32.0002 60.4162Z" fill="url(#paint1_linear_4786_3394)"/>
<path d="M20.0058 46.5358L22.4043 48.5052V46.5358H20.0058ZM20.0058 46.5358L22.4043 48.5052V46.5358H20.0058ZM20.0058 46.5358L22.4043 48.5052V46.5358H20.0058ZM20.0058 46.5358L22.4043 48.5052V46.5358H20.0058ZM20.0058 46.5358L22.4043 48.5052V46.5358H20.0058ZM19.7057 41.5884V46.0145H22.7036V41.5884H19.7057ZM16 49.106H22.3138L19.1836 46.5358V41.8494H16L17.1633 45.3117L17.219 45.4777L17.1633 45.6438L16 49.106ZM20.0058 46.5358L22.4043 48.5052V46.5358H20.0058ZM20.0058 46.5358L22.4043 48.5052V46.5358H20.0058ZM20.0058 46.5358L22.4043 48.5052V46.5358H20.0058ZM20.0058 46.5358L22.4043 48.5052V46.5358H20.0058Z" fill="#E30917"/>
<path d="M19.7061 41.3281V41.8494H22.4433V46.0145H22.9654V41.3281H19.7061Z" fill="#D5B982"/>
<path d="M22.5393 41.3279L19.7061 39.0017V46.0143H22.6653V41.4314L22.5393 41.3279ZM20.0062 46.5356L22.4047 48.505V46.5356H20.0062Z" fill="#E30917"/>
<path d="M19.819 38.7568H19.7061V39.3392L22.1278 41.3278L22.4047 41.5549V46.0142H22.9268V41.3085L19.819 38.7568Z" fill="#D5B982"/>
<path d="M42.677 46.0142H45.2V42.24L42.677 46.0142ZM42.677 46.0142H45.2V42.24L42.677 46.0142ZM42.677 46.0142H45.2V42.24L42.677 46.0142ZM42.2407 41.5881V46.0142H45.2V41.5881H42.2407ZM42.5022 46.5355V48.5049L44.8999 46.5355H42.5022ZM42.5022 46.5355V48.5049L44.8999 46.5355H42.5022ZM47.7261 45.4775L47.7818 45.3114L48.9451 41.8492H45.7221V46.5355L42.5926 49.1058H48.9451L47.7818 45.6435L47.7261 45.4775ZM42.677 46.0142H45.2V42.24L42.677 46.0142ZM42.677 46.0142H45.2V42.24L42.677 46.0142ZM42.677 46.0142H45.2V42.24L42.677 46.0142Z" fill="#E30917"/>
<path d="M41.98 41.3279V46.0142H42.5021V41.8492H45.1999V41.3279H41.98Z" fill="#D5B982"/>
<path d="M42.502 48.505V46.5356H44.8997L42.502 48.505Z" fill="#E30917"/>
<path d="M45.2 39.0024V46.0142H42.2407V41.4314L42.3668 41.3279L45.2 39.0024Z" fill="#E30917"/>
<path d="M45.087 38.7568L41.98 41.3085V46.0142H42.5021V41.5549L42.7782 41.3278L45.1999 39.3392V38.7568H45.087Z" fill="#D5B982"/>
<path d="M45.2009 38.7568V42.2399L42.6779 46.0142H19.7061V38.7568H45.2009Z" fill="#E30917"/>
<path d="M26.1957 43.2278C26.1957 43.5978 26.1191 43.9206 25.9962 44.0905C25.7788 44.384 25.4903 44.5014 24.9675 44.5014C24.7091 44.5014 24.5676 44.4836 24.4028 44.4427V43.8735C24.6967 43.8912 24.7555 43.8966 24.8553 43.8966C25.102 43.8966 25.2962 43.8318 25.3844 43.7206C25.4493 43.6325 25.4725 43.492 25.4725 43.2278V40.5278H26.1957V43.2278Z" fill="white"/>
<path d="M29.1704 44.4427L28.8587 43.5097H27.3535L27.0418 44.4427H26.4424L27.7418 40.5278H28.6119L29.9292 44.4427H29.1712H29.1704ZM28.1007 41.1966L27.5306 42.9459H28.6707L28.1007 41.1966Z" fill="white"/>
<path d="M32.5506 44.4427V42.7405H31.0516V44.4427H30.3462V40.5278H31.0516V42.1366H32.5506V40.5278H33.256V44.4427H32.5506Z" fill="white"/>
<path d="M36.3765 44.4427L35.7654 42.8339H34.7723V44.4427H34.0669V40.5278H35.7662C36.2365 40.5278 36.5366 40.6159 36.7887 40.8329C37.0177 41.0322 37.1414 41.3202 37.1414 41.6778C37.1414 42.1829 36.9241 42.5057 36.436 42.7166L37.1236 44.4419H36.3772L36.3765 44.4427ZM35.6533 42.2709C36.1351 42.2709 36.4058 42.0539 36.4058 41.6662C36.4058 41.314 36.1413 41.0908 35.712 41.0908H34.7715V42.2709H35.6533Z" fill="white"/>
<path d="M37.7783 44.4427V40.5278H40.3006V41.1086H38.4837V42.1713H39.9417V42.7405H38.4837V43.8379H40.3238V44.4427H37.7783Z" fill="white"/>
<path d="M31.4678 28.242C32.4168 28.242 32.9861 28.0528 33.3898 27.6257C33.7216 27.2705 33.8879 26.8441 33.8879 26.3939C33.8879 25.2802 32.9861 24.4747 31.7524 24.4747C30.4476 24.4747 29.7592 25.0671 29.3322 26.4889L26.0574 25.9676C26.3892 24.7589 26.7218 24.1434 27.5045 23.385C28.667 22.2952 30.067 21.75 31.8947 21.75C35.2407 21.75 37.5186 23.48 37.5186 25.9915C37.5186 27.7215 36.6167 28.8823 34.8138 29.5217C35.8108 29.782 36.2849 30.0191 36.807 30.4933C37.5897 31.2038 37.9935 32.1522 37.9935 33.2651C37.9935 36.1559 35.5965 38.0279 31.8715 38.0279C29.8783 38.0279 28.5023 37.5537 27.3158 36.4401C26.3196 35.5396 25.8919 34.734 25.5833 33.218L28.9525 32.7438C29.3562 34.4259 30.2341 35.1843 31.8003 35.1843C33.2475 35.1843 34.2205 34.3317 34.2205 33.052C34.2205 32.3646 33.9119 31.7251 33.4138 31.3699C33.0108 31.1096 32.4648 31.0146 31.2311 31.0146H29.7839V28.242H31.4685H31.4678Z" fill="#1D1D1B"/>
<path d="M36.4113 49.8342L35.5636 52.6523H30.5183L29.2545 47.6038H27.6016V48.2494H28.7239L30.0875 53.8031C29.7719 53.9807 29.5584 54.3198 29.5584 54.7075C29.5584 55.282 30.0248 55.747 30.5987 55.747C31.0613 55.747 31.4519 55.4458 31.588 55.031H34.4676C34.6045 55.4458 34.9951 55.747 35.4576 55.747C36.0323 55.747 36.4979 55.282 36.4979 54.7075C36.4979 54.1329 36.0323 53.6679 35.4576 53.6679C34.9951 53.6679 34.6045 53.9684 34.4676 54.3839H31.588C31.4642 54.0054 31.1293 53.7235 30.7225 53.6756L30.6467 53.2988H36.0439L37.2791 49.1862H30.2514V49.8334" fill="#1D1D1B"/>
<path d="M20.586 53.3946H19.0669V53.0332C19.2185 52.9343 19.2742 52.9004 19.4536 52.7768C19.828 52.5327 19.8682 52.5018 20.0012 52.3721C20.1312 52.2454 20.1931 52.1188 20.1931 51.989C20.1931 51.779 20.0384 51.6276 19.828 51.6276C19.5959 51.6276 19.4598 51.7759 19.4258 52.057L19.0669 51.9674C19.1009 51.7851 19.1473 51.6801 19.2556 51.5565C19.4072 51.3835 19.5928 51.3032 19.8435 51.3032C20.2921 51.3032 20.5922 51.5813 20.5922 51.9952C20.5922 52.2207 20.4932 52.4092 20.2797 52.5853C20.1766 52.6697 19.9208 52.8324 19.5124 53.0734H20.586V53.3946Z" fill="#1D1D1B"/>
<path d="M22.4827 52.3814C22.4827 52.6378 22.4239 52.8726 22.3094 53.0641C22.1733 53.305 21.9567 53.4255 21.6783 53.4255C21.1894 53.4255 20.8862 53.027 20.8862 52.3783C20.8862 52.0539 20.9574 51.7944 21.1028 51.6029C21.2575 51.3959 21.4369 51.3032 21.6783 51.3032C22.1764 51.3032 22.4827 51.7141 22.4827 52.3814ZM21.2637 52.3536C21.2637 52.888 21.3936 53.1351 21.6783 53.1351C21.9629 53.1351 22.099 52.8911 22.099 52.3783C22.099 52.1651 22.0712 51.9643 22.0279 51.8438C21.9598 51.6585 21.8577 51.5782 21.6875 51.5782C21.4029 51.5782 21.2637 51.8315 21.2637 52.3536Z" fill="#1D1D1B"/>
<path d="M24.2569 53.3946H22.7378V53.0332C22.8894 52.9343 22.9451 52.9004 23.1245 52.7768C23.4989 52.5327 23.5391 52.5018 23.6721 52.3721C23.8021 52.2454 23.864 52.1188 23.864 51.989C23.864 51.779 23.7093 51.6276 23.4989 51.6276C23.2668 51.6276 23.1307 51.7759 23.0967 52.057L22.7378 51.9674C22.7718 51.7851 22.8182 51.6801 22.9265 51.5565C23.0781 51.3835 23.2637 51.3032 23.5143 51.3032C23.963 51.3032 24.2631 51.5813 24.2631 51.9952C24.2631 52.2207 24.1641 52.4092 23.9506 52.5853C23.8475 52.6697 23.5917 52.8324 23.1833 53.0734H24.2569V53.3946Z" fill="#1D1D1B"/>
<path d="M25.0748 52.1929H25.2635C25.5079 52.1929 25.6595 52.0755 25.6595 51.8902C25.6595 51.7048 25.5296 51.5967 25.3161 51.5967C25.1026 51.5967 24.9851 51.6863 24.9015 51.8994L24.5612 51.8377C24.6448 51.5102 24.9449 51.3032 25.3285 51.3032C25.74 51.3032 26.0308 51.5318 26.0308 51.8562C26.0308 52.1095 25.8761 52.2949 25.6472 52.3227C25.9318 52.3752 26.0958 52.5574 26.0958 52.82C26.0958 53.1784 25.7771 53.4255 25.313 53.4255C25.0531 53.4255 24.852 53.3483 24.6881 53.1877C24.586 53.0888 24.5365 53.0054 24.5024 52.8787L24.852 52.7922C24.9232 53.0208 25.0748 53.1351 25.3099 53.1351C25.5451 53.1351 25.7121 53.0023 25.7121 52.8139C25.7121 52.7088 25.6472 52.5945 25.5574 52.5389C25.5018 52.5049 25.4151 52.4864 25.3285 52.4864H25.0748V52.1929Z" fill="#1D1D1B"/>
<path d="M40.2911 53.3946H38.772V53.0332C38.9236 52.9343 38.9793 52.9004 39.1587 52.7768C39.5331 52.5327 39.5733 52.5018 39.7063 52.3721C39.8363 52.2454 39.8981 52.1188 39.8981 51.989C39.8981 51.779 39.7434 51.6276 39.5331 51.6276C39.301 51.6276 39.1649 51.7759 39.1309 52.057L38.772 51.9674C38.806 51.7851 38.8524 51.6801 38.9607 51.5565C39.1123 51.3835 39.2979 51.3032 39.5485 51.3032C39.9971 51.3032 40.2972 51.5813 40.2972 51.9952C40.2972 52.2207 40.1982 52.4092 39.9848 52.5853C39.8816 52.6697 39.6259 52.8324 39.2175 53.0734H40.2911V53.3946Z" fill="#1D1D1B"/>
<path d="M42.1875 52.3814C42.1875 52.6378 42.1287 52.8726 42.0142 53.0641C41.8781 53.305 41.6615 53.4255 41.3831 53.4255C40.8943 53.4255 40.5911 53.027 40.5911 52.3783C40.5911 52.0539 40.6622 51.7944 40.8076 51.6029C40.9623 51.3959 41.1418 51.3032 41.3831 51.3032C41.8812 51.3032 42.1875 51.7141 42.1875 52.3814ZM40.9693 52.3536C40.9693 52.888 41.0992 53.1351 41.3839 53.1351C41.6685 53.1351 41.8046 52.8911 41.8046 52.3783C41.8046 52.1651 41.7768 51.9643 41.7335 51.8438C41.6654 51.6585 41.5633 51.5782 41.3931 51.5782C41.1085 51.5782 40.9693 51.8315 40.9693 52.3536Z" fill="#1D1D1B"/>
<path d="M43.962 53.3946H42.4429V53.0332C42.5945 52.9343 42.6502 52.9004 42.8296 52.7768C43.204 52.5327 43.2442 52.5018 43.3772 52.3721C43.5072 52.2454 43.569 52.1188 43.569 51.989C43.569 51.779 43.4143 51.6276 43.204 51.6276C42.9719 51.6276 42.8358 51.7759 42.8018 52.057L42.4429 51.9674C42.4769 51.7851 42.5233 51.6801 42.6316 51.5565C42.7832 51.3835 42.9688 51.3032 43.2194 51.3032C43.668 51.3032 43.9681 51.5813 43.9681 51.9952C43.9681 52.2207 43.8691 52.4092 43.6557 52.5853C43.5525 52.6697 43.2968 52.8324 42.8884 53.0734H43.962V53.3946Z" fill="#1D1D1B"/>
<path d="M45.7401 51.335L45.7092 51.6532H44.7315L44.6727 52.2525C44.8181 52.0795 44.9512 52.0146 45.1554 52.0146C45.5514 52.0146 45.8669 52.3235 45.8669 52.7097C45.8669 52.8858 45.7958 53.0618 45.6751 53.1916C45.5266 53.3461 45.3193 53.4264 45.0625 53.4264C44.8058 53.4264 44.5644 53.3399 44.4159 53.1854C44.3324 53.0989 44.2922 53.0155 44.252 52.8641L44.6077 52.8085C44.6789 53.0186 44.8243 53.1236 45.044 53.1236C45.2946 53.1236 45.4647 52.9568 45.4647 52.7066C45.4647 52.4718 45.3008 52.2988 45.0749 52.2988C44.8955 52.2988 44.7655 52.376 44.6727 52.5367L44.3417 52.4718L44.4592 51.335H45.7401Z" fill="#1D1D1B"/>
<path d="M20.8549 14.867H19.3887V18.8831H18.4729V14.867H17V14.051H20.8543V14.867H20.8549ZM29.2247 14.9708C29.3 15.1601 29.3383 15.3737 29.3383 15.6048C29.3383 15.836 29.297 16.049 29.2162 16.2419C29.1342 16.4367 29.0114 16.6072 28.8528 16.7485C28.6954 16.8881 28.4998 16.9979 28.2701 17.0744C28.0446 17.1496 27.7846 17.1878 27.4971 17.1878H26.9199V18.8825H26.0072V14.0504H27.4971C27.7985 14.0504 28.0653 14.0862 28.2913 14.1565C28.5229 14.2293 28.7185 14.3349 28.8729 14.4702C29.029 14.6073 29.1481 14.776 29.2253 14.9702L29.2247 14.9708ZM28.2044 15.0393C28.0556 14.904 27.8174 14.8349 27.4965 14.8349H26.9193V16.3997H27.4965C27.6545 16.3997 27.7943 16.379 27.911 16.3384C28.0252 16.2989 28.1206 16.2443 28.1959 16.1752C28.2695 16.1072 28.326 16.0253 28.3637 15.9313C28.4025 15.8342 28.4226 15.7244 28.4226 15.6042C28.4226 15.3573 28.3509 15.1722 28.2044 15.0387V15.0393ZM25.2336 15.4805C25.3473 15.7802 25.405 16.1121 25.405 16.4682C25.405 16.8244 25.3473 17.1563 25.2336 17.456C25.1194 17.7576 24.9547 18.0209 24.7457 18.2387C24.5355 18.4577 24.2802 18.6294 23.9861 18.7496C23.6933 18.8691 23.3669 18.9298 23.0151 18.9298C22.6633 18.9298 22.337 18.8691 22.0459 18.7496C21.753 18.6294 21.4984 18.4571 21.2882 18.2387C21.0785 18.0209 20.9145 17.7576 20.8002 17.456C20.6866 17.1569 20.6289 16.8244 20.6289 16.4682C20.6289 16.1121 20.6866 15.7796 20.8002 15.4805C20.9145 15.1795 21.0785 14.9156 21.2882 14.6965C21.4984 14.4769 21.753 14.304 22.0453 14.1826C22.337 14.0619 22.6633 14.0006 23.0151 14.0006C23.3669 14.0006 23.6939 14.0619 23.9868 14.1826C24.2802 14.304 24.5355 14.4769 24.7457 14.6965C24.9553 14.9162 25.1194 15.1795 25.2336 15.4811V15.4805ZM24.3677 15.768C24.2991 15.5672 24.2006 15.3961 24.0761 15.259C23.9527 15.1231 23.8002 15.0175 23.6228 14.9441C23.4435 14.8701 23.2393 14.8324 23.0151 14.8324C22.7909 14.8324 22.5904 14.8701 22.4111 14.9441C22.2343 15.0175 22.0812 15.1237 21.956 15.2596C21.8302 15.3961 21.7318 15.5672 21.6631 15.768C21.5932 15.9725 21.5574 16.2079 21.5574 16.4682C21.5574 16.7285 21.5926 16.9639 21.6631 17.1672C21.7324 17.3668 21.8308 17.5373 21.9566 17.6738C22.0812 17.8097 22.2337 17.9153 22.4111 17.9875C22.7715 18.1349 23.2679 18.1331 23.624 17.9875C23.8008 17.9153 23.9533 17.8097 24.0761 17.6744C24.2013 17.5379 24.2991 17.3668 24.3684 17.1672C24.4388 16.9639 24.4741 16.7291 24.4741 16.4682C24.4741 16.2073 24.4382 15.9719 24.3684 15.768H24.3677ZM33.5189 16.4434C33.4059 16.3457 33.2765 16.2638 33.1331 16.2C33 16.1406 32.8615 16.0866 32.7211 16.0387C32.5844 15.9919 32.4513 15.947 32.3213 15.904C32.201 15.8639 32.0934 15.8166 32.0004 15.7632C31.9166 15.7147 31.8485 15.6564 31.7987 15.5903C31.7562 15.5332 31.7355 15.4598 31.7355 15.3658C31.7355 15.2875 31.7495 15.2135 31.7774 15.1473C31.8048 15.0818 31.8449 15.0266 31.899 14.9781C31.9543 14.9283 32.0266 14.8883 32.1128 14.8579C32.297 14.7936 32.5838 14.7985 32.7491 14.8561C32.842 14.8889 32.921 14.9241 32.9848 14.9623C33.0523 15.0023 33.1082 15.0387 33.1513 15.0715C33.2965 15.1819 33.4412 15.1759 33.5408 15.1018C33.5779 15.0739 33.6113 15.0351 33.6441 14.9793L33.8434 14.5898L33.7638 14.5121C33.5943 14.3471 33.3926 14.219 33.1647 14.1317C32.9392 14.0455 32.6877 14.0012 32.4173 14.0012C32.173 14.0012 31.9524 14.04 31.7616 14.1165C31.5702 14.1929 31.4055 14.2973 31.2731 14.4271C31.1406 14.557 31.0385 14.7081 30.9692 14.8755C30.8994 15.043 30.8641 15.2189 30.8641 15.3979C30.8641 15.6188 30.9 15.8093 30.9711 15.9646C31.0416 16.1181 31.1364 16.2492 31.253 16.3542C31.3654 16.4549 31.4961 16.538 31.6401 16.6011C31.7738 16.66 31.9129 16.7121 32.0539 16.757L32.4531 16.8838C32.5716 16.9215 32.678 16.9676 32.7697 17.021C32.8517 17.0689 32.9186 17.1284 32.9684 17.1981C33.0122 17.2594 33.034 17.3431 33.034 17.4475C33.034 17.5519 33.0164 17.6453 32.9824 17.7278C32.9484 17.8097 32.901 17.8777 32.8372 17.9359C32.7734 17.9948 32.6932 18.0409 32.599 18.0737C32.5017 18.1076 32.3875 18.1252 32.2593 18.1252C32.1037 18.1252 31.9725 18.1046 31.8692 18.064C31.7586 18.0209 31.6638 17.9729 31.5878 17.9226C31.5064 17.8686 31.439 17.8188 31.3873 17.7758C31.239 17.6526 31.0914 17.6417 30.9753 17.7175C30.9358 17.743 30.9018 17.7758 30.8672 17.8237L30.6302 18.2126L30.7092 18.2963C30.8933 18.4917 31.1181 18.6489 31.377 18.7623C31.6365 18.877 31.9275 18.9346 32.2405 18.9346C32.4993 18.9346 32.7345 18.894 32.9399 18.8133C33.1477 18.732 33.3257 18.6185 33.4691 18.4765C33.6131 18.334 33.7243 18.1635 33.7997 17.9705C33.8738 17.7794 33.9115 17.5731 33.9115 17.3577C33.9115 17.1423 33.875 16.9664 33.8027 16.8183C33.7316 16.6721 33.6362 16.5459 33.5189 16.4446V16.4434ZM37.4547 16.0714H35.3115V14.051H34.3927V18.8831H35.3115V16.8214H37.4547V18.8831H38.3735V14.051H37.4547V16.0714ZM43.3987 15.4805C43.5123 15.7802 43.5701 16.1121 43.5701 16.4682C43.5701 16.8244 43.5123 17.1569 43.3987 17.456C43.2845 17.7576 43.1198 18.0209 42.9102 18.2387C42.6999 18.4577 42.4447 18.6294 42.1506 18.7496C41.8583 18.8691 41.532 18.9298 41.1802 18.9298C40.8284 18.9298 40.5021 18.8691 40.211 18.7496C39.9181 18.6294 39.6635 18.4571 39.4532 18.2387C39.2436 18.0209 39.0795 17.7576 38.9647 17.456C38.8511 17.1563 38.7933 16.8238 38.7933 16.4682C38.7933 16.1127 38.8511 15.7808 38.9647 15.4805C39.0789 15.1789 39.2436 14.9156 39.4526 14.6959C39.6629 14.4763 39.9175 14.3034 40.2098 14.182C40.5014 14.0613 40.8278 14 41.1796 14C41.5314 14 41.8583 14.0613 42.1506 14.182C42.4441 14.3034 42.6993 14.4763 42.9096 14.6959C43.1192 14.915 43.2833 15.1789 43.3975 15.4798L43.3987 15.4805ZM42.5328 15.7674C42.4642 15.5666 42.3657 15.3955 42.2405 15.259C42.1172 15.1231 41.9647 15.0175 41.7878 14.9441C41.6086 14.8701 41.4044 14.8324 41.1802 14.8324C40.956 14.8324 40.7554 14.8701 40.5762 14.9441C40.3994 15.0175 40.2462 15.1237 40.1211 15.2596C39.9953 15.3961 39.8968 15.5672 39.8282 15.768C39.7577 15.9731 39.7218 16.2085 39.7218 16.4688C39.7218 16.7291 39.7577 16.9645 39.8282 17.1678C39.8968 17.3674 39.9959 17.5379 40.1211 17.675C40.2456 17.8103 40.3988 17.9159 40.5756 17.9887C40.9353 18.1362 41.4311 18.1343 41.7884 17.9887C41.9653 17.9165 42.1172 17.8109 42.2405 17.6756C42.3651 17.5385 42.4635 17.368 42.5328 17.1684C42.6027 16.9651 42.6385 16.7297 42.6385 16.4694C42.6385 16.2091 42.6027 15.9731 42.5328 15.7687V15.7674ZM47.25 15.6048C47.25 15.8342 47.2087 16.0484 47.1273 16.2419C47.0452 16.4367 46.9225 16.6072 46.7639 16.7485C46.6065 16.8881 46.4108 16.9979 46.1811 17.0744C45.9557 17.1496 45.6956 17.1884 45.4082 17.1884H44.8303V18.8831H43.9176V14.051H45.4076C45.709 14.051 45.9758 14.0868 46.2018 14.1571C46.4333 14.23 46.629 14.3355 46.7833 14.4708C46.9401 14.6086 47.0586 14.7766 47.1358 14.9714C47.2111 15.1607 47.2494 15.3743 47.2494 15.6054L47.25 15.6048ZM46.1155 15.0393C45.9666 14.904 45.7284 14.8349 45.4076 14.8349H44.8297V16.3997H45.4076C45.5656 16.3997 45.7054 16.379 45.822 16.3384C45.9363 16.2989 46.0317 16.2443 46.1064 16.1752C46.1811 16.1066 46.2364 16.0265 46.2747 15.9307C46.3136 15.8336 46.3331 15.7231 46.3331 15.6042C46.3331 15.3573 46.2614 15.1722 46.1149 15.0387L46.1155 15.0393Z" fill="#1B181E"/>
<path d="M31.9839 8.27637H29.9749V10.2824H31.9839V8.27637Z" fill="#E52521"/>
<path d="M31.9859 6H29.9758V6.30575H31.9859V6Z" fill="#E52521"/>
<mask id="mask0_4786_3394" style="mask-type:luminance" maskUnits="userSpaceOnUse" x="30" y="8" width="2" height="3">
<path d="M31.783 8.47705H30.1758V10.0819H31.783V8.47705Z" fill="white"/>
</mask>
<g mask="url(#mask0_4786_3394)">
<path d="M31.2204 8.47705H31.0195V10.0819H31.2204V8.47705Z" fill="white"/>
<path d="M30.5776 9.21289C30.6231 9.21289 30.658 9.15935 30.658 9.11936V8.55785C30.658 8.51785 30.618 8.47754 30.5776 8.47754H30.1758V10.0824H30.5776C30.6176 10.0824 30.658 10.0424 30.658 10.0021V9.27997C30.658 9.23998 30.6277 9.21321 30.5776 9.21321V9.21289ZM30.3767 8.67782H30.4571V9.13903H30.3767V8.67782ZM30.3767 9.88147V9.33996H30.4571V9.88147H30.3767Z" fill="white"/>
<path d="M31.7828 8.47705H31.5819V8.75797H31.381C31.3409 8.75797 31.3005 8.79796 31.3005 8.83827V10.0016C31.3005 10.0416 31.3406 10.0819 31.381 10.0819H31.7828V8.47705ZM31.5018 9.88131V8.95857H31.5822V9.88131H31.5018Z" fill="white"/>
<path d="M30.9389 8.47705H30.738V8.67766H30.9389V8.47705Z" fill="white"/>
<path d="M30.9389 8.75781H30.738V10.0818H30.9389V8.75781Z" fill="white"/>
</g>
<path d="M26.5 7.08448C26.5 6.51846 26.9286 6.13208 27.4816 6.13208C27.8879 6.13208 28.1231 6.35301 28.2529 6.582L27.9157 6.74777C27.8382 6.59877 27.6725 6.48008 27.4816 6.48008C27.147 6.48008 26.9038 6.73681 26.9038 7.08481C26.9038 7.43248 27.147 7.68953 27.4816 7.68953C27.6725 7.68953 27.8382 7.57375 27.9157 7.42184L28.2529 7.58471C28.1202 7.8137 27.8879 8.03753 27.4816 8.03753C26.9286 8.03753 26.5 7.65115 26.5 7.08513V7.08448Z" fill="#1D1D1B"/>
<path d="M28.3755 7.33554C28.3755 6.95723 28.641 6.63696 29.0806 6.63696C29.5231 6.63696 29.7883 6.95723 29.7883 7.33554C29.7883 7.71644 29.5228 8.0367 29.0806 8.0367C28.6384 8.0367 28.3755 7.71644 28.3755 7.33554ZM29.4233 7.33554C29.4233 7.12848 29.299 6.94916 29.0806 6.94916C28.8623 6.94916 28.7405 7.12848 28.7405 7.33554C28.7405 7.5426 28.8623 7.72483 29.0806 7.72483C29.299 7.72483 29.4233 7.5455 29.4233 7.33554Z" fill="#1D1D1B"/>
<path d="M31.6316 8.00356V7.16146C31.6316 7.03729 31.5764 6.94892 31.4327 6.94892C31.3083 6.94892 31.2059 7.03181 31.1562 7.10341V8.00324H30.8022V7.16114C30.8022 7.03697 30.7469 6.9486 30.6032 6.9486C30.4814 6.9486 30.3793 7.03148 30.3267 7.10599V8.00324H29.9756V6.66994H30.3267V6.84378C30.3819 6.76379 30.5589 6.63672 30.7634 6.63672C30.9598 6.63672 31.0841 6.72767 31.1339 6.87958C31.2114 6.75799 31.3881 6.63672 31.5929 6.63672C31.839 6.63672 31.9853 6.76637 31.9853 7.03987V8.00324H31.6313L31.6316 8.00356Z" fill="#1D1D1B"/>
<path d="M32.5511 7.83222V8.51145H32.2V6.67018H32.5511V6.83854C32.6534 6.70888 32.7998 6.63696 32.9629 6.63696C33.3056 6.63696 33.5546 6.89079 33.5546 7.33554C33.5546 7.77998 33.3059 8.0367 32.9629 8.0367C32.8053 8.0367 32.6586 7.97059 32.5511 7.83255V7.83222ZM33.1896 7.33554C33.1896 7.10655 33.0543 6.94916 32.8524 6.94916C32.739 6.94916 32.6092 7.01528 32.5511 7.10107V7.57324C32.6092 7.65613 32.739 7.72515 32.8524 7.72515C33.0543 7.72515 33.1896 7.56776 33.1896 7.33586V7.33554Z" fill="#1D1D1B"/>
<path d="M34.6404 8.00371V7.83535C34.5493 7.93759 34.3888 8.03693 34.1705 8.03693C33.8775 8.03693 33.7393 7.87696 33.7393 7.61733V6.67041H34.0904V7.47929C34.0904 7.6641 34.1873 7.72505 34.3365 7.72505C34.4718 7.72505 34.5797 7.65055 34.6408 7.57315V6.67041H34.9919V8.00371H34.6408H34.6404Z" fill="#1D1D1B"/>
<path d="M35.4056 7.67243V6.97675H35.1843V6.67036H35.4056V6.30591H35.7596V6.67036H36.0306V6.97675H35.7596V7.57857C35.7596 7.66146 35.8038 7.725 35.8814 7.725C35.934 7.725 35.9838 7.70565 36.0031 7.6863L36.0778 7.95141C36.0251 7.9985 35.9311 8.03688 35.7848 8.03688C35.5387 8.03688 35.4059 7.9098 35.4059 7.67243H35.4056Z" fill="#1D1D1B"/>
<path d="M36.1741 7.33554C36.1741 6.94916 36.459 6.63696 36.8653 6.63696C37.2636 6.63696 37.5342 6.93497 37.5342 7.37134V7.44875H36.5416C36.5636 7.6171 36.6993 7.75804 36.926 7.75804C37.0394 7.75804 37.197 7.70838 37.2826 7.62549L37.4373 7.8519C37.3046 7.97349 37.0946 8.0367 36.8873 8.0367C36.4809 8.0367 36.1741 7.76353 36.1741 7.33554ZM36.8653 6.91594C36.6469 6.91594 36.553 7.07882 36.5362 7.21137H37.1941C37.1857 7.0843 37.0972 6.91594 36.865 6.91594H36.8653Z" fill="#1D1D1B"/>
<path d="M37.7232 8.00348V6.67018H38.0743V6.85241C38.1683 6.73372 38.3343 6.63696 38.5 6.63696V6.97916C38.4752 6.97367 38.4419 6.97077 38.4031 6.97077C38.2872 6.97077 38.1321 7.03689 38.074 7.12268V8.00316H37.7229L37.7232 8.00348Z" fill="#1D1D1B"/>
</g>
<defs>
<linearGradient id="paint0_linear_4786_3394" x1="1.92017" y1="62.0802" x2="62.0802" y2="1.92017" gradientUnits="userSpaceOnUse">
<stop stop-color="#AA7C11"/>
<stop offset="0.5" stop-color="white"/>
<stop offset="1" stop-color="#D4AF37"/>
</linearGradient>
<linearGradient id="paint1_linear_4786_3394" x1="3.58423" y1="3.58423" x2="60.4162" y2="60.4162" gradientUnits="userSpaceOnUse">
<stop stop-color="#F3E7C4"/>
<stop offset="0.5" stop-color="#C7AC7C"/>
<stop offset="1" stop-color="#BA995B"/>
</linearGradient>
<clipPath id="clip0_4786_3394">
<rect width="64" height="64" fill="white"/>
</clipPath>
</defs>
</svg>
